<svg xmlns="http://www.w3.org/2000/svg" viewBox="0 0 60 30">
  <rect width="60" height="15" fill="#0038A8"/>
  <rect y="15" width="60" height="15" fill="#CE1126"/>
  <polygon points="0,0 0,30 26,15" fill="#FFFFFF"/>
  <circle cx="9" cy="15" r="3.5" fill="#FCD116"/>
  <!-- Sun rays (simplified for icon clarity) -->
  <path d="M 9,10 L 9,20 M 4,15 L 14,15 M 5.46,11.46 L 12.54,18.54 M 5.46,18.54 L 12.54,11.46" stroke="#FCD116" stroke-width="1.2"/>
  <!-- Stars -->
  <!-- Top-left star -->
  <polygon points="3.5,4.5 3.8,5.4 4.7,5.4 4,6 4.3,6.9 3.5,6.3 2.7,6.9 3,6 2.3,5.4 3.2,5.4" fill="#FCD116"/>
  <!-- Bottom-left star -->
  <polygon points="3.5,23.1 3.8,24 4.7,24 4,24.6 4.3,25.5 3.5,24.9 2.7,25.5 3,24.6 2.3,24 3.2,24" fill="#FCD116"/>
  <!-- Right star -->
  <polygon points="21.5,13.8 21.8,14.7 22.7,14.7 22,15.3 22.3,16.2 21.5,15.6 20.7,16.2 21,15.3 20.3,14.7 21.2,14.7" fill="#FCD116"/>
</svg>
